<svg width="150" height="247" viewBox="0 0 150 247" fill="none" xmlns="http://www.w3.org/2000/svg">
<g filter="url(#filter0_ii_3597_4320)">
<path d="M0 171.816C0 213.339 33.5786 247.001 75 247.001C116.421 247.001 150 213.339 150 171.816C150 111.72 98.5 57.0009 75 0.000946045C51.5 57.5009 0 110.661 0 171.816Z" fill="url(#paint0_linear_3597_4320)"/>
</g>
<path d="M0.5 171.816C0.5 213.064 33.8559 246.501 75 246.501C116.144 246.501 149.5 213.064 149.5 171.816C149.5 141.904 136.682 113.297 120.876 84.9912C116.123 76.4803 111.098 67.9934 106.074 59.5087C94.6313 40.1836 83.1951 20.8696 75.002 1.30861C66.7387 21.2032 55.1759 40.6031 43.6346 59.9669C38.7075 68.2336 33.7842 76.4937 29.1233 84.7829C13.3181 112.892 0.5 141.375 0.5 171.816Z" stroke="url(#paint1_linear_3597_4320)"/>
<defs>
<filter id="filter0_ii_3597_4320" x="-11" y="-12.9991" width="161" height="260" filterUnits="userSpaceOnUse" color-interpolation-filters="sRGB">
<feFlood flood-opacity="0" result="BackgroundImageFix"/>
<feBlend mode="normal" in="SourceGraphic" in2="BackgroundImageFix" result="shape"/>
<feColorMatrix in="SourceAlpha" type="matrix" values="0 0 0 0 0 0 0 0 0 0 0 0 0 0 0 0 0 0 127 0" result="hardAlpha"/>
<feOffset dx="-11" dy="-14"/>
<feGaussianBlur stdDeviation="6.5"/>
<feComposite in2="hardAlpha" operator="arithmetic" k2="-1" k3="1"/>
<feColorMatrix type="matrix" values="0 0 0 0 0.345833 0 0 0 0 0.183174 0 0 0 0 0.0850174 0 0 0 1 0"/>
<feBlend mode="normal" in2="shape" result="effect1_innerShadow_3597_4320"/>
<feColorMatrix in="SourceAlpha" type="matrix" values="0 0 0 0 0 0 0 0 0 0 0 0 0 0 0 0 0 0 127 0" result="hardAlpha"/>
<feOffset dx="-2" dy="-3"/>
<feGaussianBlur stdDeviation="1"/>
<feComposite in2="hardAlpha" operator="arithmetic" k2="-1" k3="1"/>
<feColorMatrix type="matrix" values="0 0 0 0 0.717647 0 0 0 0 0.507608 0 0 0 0 0.313726 0 0 0 0.49 0"/>
<feBlend mode="normal" in2="effect1_innerShadow_3597_4320" result="effect2_innerShadow_3597_4320"/>
</filter>
<linearGradient id="paint0_linear_3597_4320" x1="75" y1="0.000946045" x2="75" y2="247.001" gradientUnits="userSpaceOnUse">
<stop stop-color="#C78D5D"/>
<stop offset="1" stop-color="#7C4221"/>
</linearGradient>
<linearGradient id="paint1_linear_3597_4320" x1="168" y1="239.501" x2="80" y2="39.501" gradientUnits="userSpaceOnUse">
<stop stop-color="white" stop-opacity="0.37"/>
<stop offset="1" stop-color="white" stop-opacity="0"/>
</linearGradient>
</defs>
</svg>
