<svg width="54" height="23" viewBox="0 0 54 23" fill="none" xmlns="http://www.w3.org/2000/svg">
<path fill-rule="evenodd" clip-rule="evenodd" d="M34.5069 0.712141C33.7441 0.847616 32.9621 1.00242 32.2765 1.17659C29.8144 0.42196 26.9178 0.0155352 23.5771 0.296196C23.5771 0.296196 28.3082 -0.594007 34.5069 0.712141ZM53.1328 12.6729C51.0859 9.94446 48.8555 7.787 46.5672 6.09375C45.3024 6.35499 43.4679 6.79045 41.8555 7.31288C42.821 8.37716 43.2941 9.13175 43.2941 9.13175C18.2774 9.03502 0 22.5125 0 22.5125C23.0953 15.8559 44.4431 17.9168 44.4431 17.9168L42.1548 20.084L47.359 17.5299L39.432 14.4531C46.3452 11.1442 53.1328 12.6729 53.1328 12.6729ZM37.7693 1.57422C36.7169 1.76772 35.6066 2.02896 34.9307 2.20309C36.688 3.01589 38.1652 3.99297 39.3624 4.96052C40.2604 4.64121 41.5639 4.22522 43.07 3.84788C41.2742 2.87075 39.488 2.13535 37.7693 1.57422Z" fill="#D71E48"/>
</svg>
