<svg width="330" height="523" viewBox="0 0 330 523" fill="none" xmlns="http://www.w3.org/2000/svg">
<rect x="330" y="712" width="330" height="712" rx="20.7791" transform="rotate(-180 330 712)" fill="url(#paint0_linear_3597_4357)"/>
<path d="M47 429V400L164.5 350.5V381.5L47 429Z" fill="#00243C"/>
<path d="M164 381.163L47.5 428.259V400.332L164 351.253V381.163Z" stroke="white" stroke-opacity="0.06" stroke-linecap="round" stroke-linejoin="round"/>
<path d="M282 429V400L164.5 350.5V381.5L282 429Z" fill="#003C63"/>
<path d="M165 381.163L281.5 428.259V400.332L165 351.253V381.163Z" stroke="white" stroke-opacity="0.06" stroke-linecap="round" stroke-linejoin="round"/>
<path d="M48.3865 398.873L164.5 230.879L280.613 398.873L164.694 350.039C164.57 349.987 164.43 349.987 164.306 350.039L48.3865 398.873Z" fill="url(#paint1_linear_3597_4357)" stroke="url(#paint2_linear_3597_4357)" stroke-linejoin="round"/>
<defs>
<linearGradient id="paint0_linear_3597_4357" x1="495" y1="724.5" x2="495" y2="1477" gradientUnits="userSpaceOnUse">
<stop stop-color="#005A94"/>
<stop offset="0.847323" stop-color="#000B12"/>
</linearGradient>
<linearGradient id="paint1_linear_3597_4357" x1="237.649" y1="74.6946" x2="144.914" y2="376.939" gradientUnits="userSpaceOnUse">
<stop offset="0.536458" stop-color="#009BFF"/>
<stop offset="1" stop-color="#005A94"/>
</linearGradient>
<linearGradient id="paint2_linear_3597_4357" x1="339.78" y1="-21.8404" x2="34.3382" y2="356.193" gradientUnits="userSpaceOnUse">
<stop stop-color="white"/>
<stop offset="1" stop-color="white" stop-opacity="0"/>
</linearGradient>
</defs>
</svg>
