<svg width="38" height="74" viewBox="0 0 38 74" fill="none" xmlns="http://www.w3.org/2000/svg">
<path opacity="0.3" d="M37.085 27.0117C37.5711 27.0117 37.9651 26.6176 37.9651 26.1315V20.6567C37.9651 20.1706 37.5711 19.7765 37.085 19.7765H31.7224C31.2649 19.7765 30.8853 19.4252 30.8337 18.9706C30.4103 15.239 29.2591 12.1048 27.1191 9.74051C26.5414 9.10225 26.9591 7.8979 27.8199 7.8979H37.085C37.5711 7.8979 37.9651 7.50383 37.9651 7.01772V1.5429C37.9651 1.05679 37.5711 0.66272 37.085 0.66272H1.3316C0.845488 0.66272 0.451416 1.05679 0.451416 1.54291V7.77363C0.451416 8.25974 0.845488 8.65381 1.3316 8.65381H12.1563C18.2574 8.65381 22.2428 12.1893 23.3558 18.792C23.4435 19.3126 23.0328 19.7765 22.505 19.7765H1.3316C0.845489 19.7765 0.451416 20.1706 0.451416 20.6567V26.1315C0.451416 26.6176 0.845488 27.0117 1.3316 27.0117H22.574C23.1032 27.0117 23.5143 27.4776 23.4233 27.9989C22.3029 34.4141 18.3172 38.1345 12.1563 38.1345H1.3316C0.845488 38.1345 0.451416 38.5285 0.451416 39.0146V45.2454C0.451416 45.7315 0.845489 46.1255 1.3316 46.1255H11.7292C12.0773 46.1255 12.3927 46.3307 12.5338 46.6489L24.2833 73.1391C24.4245 73.4573 24.7399 73.6624 25.0879 73.6624H31.4257C32.0686 73.6624 32.4945 72.9956 32.2244 72.4123L19.9142 45.8339C19.6931 45.3565 19.9388 44.7948 20.4263 44.5971C26.2731 42.2251 30.2599 36.2379 31.1303 27.8228C31.1776 27.3657 31.5585 27.0117 32.0179 27.0117H37.085Z" fill="#40D08B"/>
</svg>
