<svg width="1392" height="451" viewBox="0 0 1392 451" fill="none" xmlns="http://www.w3.org/2000/svg">
<path d="M1486.5 7.42834C1486.47 7.42345 1486.43 7.41829 1486.39 7.41285C1486.04 7.36177 1485.51 7.28676 1484.81 7.19125C1483.41 7.00024 1481.32 6.7272 1478.6 6.39948C1473.14 5.74404 1465.12 4.86987 1454.82 3.9957C1434.24 2.24732 1404.59 0.498946 1368.35 0.5C1339.24 0.500848 1312.84 3.97143 1281.47 8.09429C1273.82 9.10083 1265.86 10.1462 1257.5 11.1895C1214.91 16.505 1161.8 21.7552 1083.5 21.4949C1005.83 21.2367 971.887 17.2972 938.236 13.3918L937.413 13.2963C903.517 9.36297 869.557 5.49472 791.03 5.49472C713.7 5.49472 670.322 9.37211 626.272 13.3097L624.223 13.4928C579.447 17.4935 533.426 21.4949 449.911 21.4949C342.023 21.4949 302.986 27.961 252.531 36.3183C224.903 40.8946 193.851 46.038 146.197 50.9973C78.8632 58.0046 18.5402 55.0025 -24.9492 50.249C-46.6945 47.8722 -64.2328 45.0573 -76.3365 42.8362C-82.3885 41.7257 -87.0819 40.7635 -90.2634 40.0788C-91.8541 39.7364 -93.0669 39.4634 -93.8824 39.2758C-94.1229 39.2205 -94.329 39.1726 -94.5 39.1325V464.056L1486.5 464.5V7.42834Z" fill="url(#paint0_linear_3597_4306)" stroke="url(#paint1_linear_3597_4306)"/>
<defs>
<linearGradient id="paint0_linear_3597_4306" x1="1069.5" y1="-567" x2="794.577" y2="276.672" gradientUnits="userSpaceOnUse">
<stop stop-color="#A8774E"/>
<stop offset="1" stop-color="#422E1D"/>
</linearGradient>
<linearGradient id="paint1_linear_3597_4306" x1="944" y1="-144.044" x2="148.411" y2="227.057" gradientUnits="userSpaceOnUse">
<stop stop-color="white"/>
<stop offset="1" stop-color="white" stop-opacity="0"/>
</linearGradient>
</defs>
</svg>
