<svg width="1392" height="427" viewBox="0 0 1392 427" fill="none" xmlns="http://www.w3.org/2000/svg">
<path opacity="0.6" d="M-94.5 480.5V7.42835C-94.4663 7.42346 -94.4305 7.41829 -94.3928 7.41285C-94.0384 7.36177 -93.5086 7.28677 -92.8082 7.19126C-91.4074 7.00024 -89.3244 6.7272 -86.5978 6.39948C-81.1444 5.74404 -73.1166 4.86988 -62.8233 3.9957C-42.2365 2.24733 -12.5883 0.498946 23.65 0.5C52.801 0.500849 78.9192 5.11577 109.983 10.6046C117.494 11.9317 125.295 13.31 133.497 14.6865C175.608 21.7535 228.233 28.7553 306.544 28.4949C384.394 28.2361 418.808 22.5483 453.025 16.8933L453.632 16.793C488.013 11.1112 522.454 5.49472 600.97 5.49472C678.3 5.49472 721.678 9.37211 765.728 13.3097L767.777 13.4928C812.553 17.4935 858.574 21.4949 942.089 21.4949C1016.67 21.4949 1058.4 16.7081 1093.71 12.6577C1097.95 12.1722 1102.09 11.6972 1106.18 11.2423C1144.4 6.99615 1178.55 4.49891 1245.8 11.4973C1313.13 18.5044 1373.46 16.0014 1416.94 11.747C1438.69 9.61976 1456.23 7.05447 1468.33 5.02062C1474.38 4.00368 1479.07 3.11959 1482.26 2.48951C1483.85 2.17447 1485.06 1.92293 1485.87 1.75004C1486.12 1.6982 1486.33 1.65343 1486.5 1.61613V480.056L-94.5 480.5Z" fill="url(#paint0_linear_3597_4307)" stroke="url(#paint1_linear_3597_4307)"/>
<defs>
<linearGradient id="paint0_linear_3597_4307" x1="590.999" y1="-321" x2="697.182" y2="542.499" gradientUnits="userSpaceOnUse">
<stop stop-color="#A8774E"/>
<stop offset="1" stop-color="#1B0B10"/>
</linearGradient>
<linearGradient id="paint1_linear_3597_4307" x1="448" y1="-149" x2="1253" y2="214" gradientUnits="userSpaceOnUse">
<stop stop-color="white"/>
<stop offset="1" stop-color="white" stop-opacity="0"/>
</linearGradient>
</defs>
</svg>
