<svg width="161" height="235" viewBox="0 0 161 235" fill="none" xmlns="http://www.w3.org/2000/svg">
<mask id="path-1-inside-1_3597_4408" fill="white">
<path fill-rule="evenodd" clip-rule="evenodd" d="M80.9032 234.854C125.139 234.854 161 182.424 161 117.75C161 53.0753 125.139 0.64624 80.9032 0.64624C80.6096 0.64624 80.3163 0.64855 80.0235 0.653157V0.64624H49.217V10.1665C20.7401 28.1183 0.806274 69.5307 0.806274 117.75C0.806274 165.969 20.7401 207.381 49.217 225.333V234.776H77.9528C78.9318 234.827 79.9154 234.854 80.9032 234.854Z"/>
</mask>
<path fill-rule="evenodd" clip-rule="evenodd" d="M80.9032 234.854C125.139 234.854 161 182.424 161 117.75C161 53.0753 125.139 0.64624 80.9032 0.64624C80.6096 0.64624 80.3163 0.64855 80.0235 0.653157V0.64624H49.217V10.1665C20.7401 28.1183 0.806274 69.5307 0.806274 117.75C0.806274 165.969 20.7401 207.381 49.217 225.333V234.776H77.9528C78.9318 234.827 79.9154 234.854 80.9032 234.854Z" fill="url(#paint0_linear_3597_4408)"/>
<path d="M80.0235 0.653157H79.1433V1.5473L80.0373 1.53323L80.0235 0.653157ZM80.0235 0.64624H80.9037V-0.233945H80.0235V0.64624ZM49.217 0.64624V-0.233945H48.3368V0.64624H49.217ZM49.217 10.1665L49.6864 10.9111L50.0972 10.6522V10.1665H49.217ZM49.217 225.333H50.0972V224.848L49.6864 224.589L49.217 225.333ZM49.217 234.776H48.3368V235.656H49.217V234.776ZM77.9528 234.776L77.9993 233.897L77.976 233.895H77.9528V234.776ZM160.12 117.75C160.12 149.933 151.196 179.031 136.814 200.058C122.429 221.089 102.646 233.973 80.9032 233.973V235.734C103.397 235.734 123.662 222.403 138.267 201.052C152.874 179.696 161.88 150.241 161.88 117.75H160.12ZM80.9032 1.52643C102.646 1.52643 122.429 14.4106 136.814 35.442C151.196 56.4692 160.12 85.5668 160.12 117.75H161.88C161.88 85.2585 152.874 55.8042 138.267 34.4482C123.662 13.0964 103.397 -0.233945 80.9032 -0.233945V1.52643ZM80.0373 1.53323C80.3256 1.5287 80.6142 1.52643 80.9032 1.52643V-0.233945C80.6049 -0.233945 80.3071 -0.231599 80.0096 -0.22692L80.0373 1.53323ZM79.1433 0.64624V0.653157H80.9037V0.64624H79.1433ZM49.217 1.52643H80.0235V-0.233945H49.217V1.52643ZM50.0972 10.1665V0.64624H48.3368V10.1665H50.0972ZM1.68646 117.75C1.68646 69.7271 21.5435 28.6524 49.6864 10.9111L48.7476 9.42196C19.9367 27.5843 -0.0739111 69.3343 -0.0739111 117.75H1.68646ZM49.6864 224.589C21.5435 206.847 1.68646 165.773 1.68646 117.75H-0.0739111C-0.0739111 166.166 19.9367 207.915 48.7476 226.078L49.6864 224.589ZM50.0972 234.776V225.333H48.3368V234.776H50.0972ZM77.9528 233.895H49.217V235.656H77.9528V233.895ZM80.9032 233.973C79.9309 233.973 78.9629 233.948 77.9993 233.897L77.9062 235.655C78.9008 235.707 79.8999 235.734 80.9032 235.734V233.973Z" fill="url(#paint1_linear_3597_4408)" mask="url(#path-1-inside-1_3597_4408)"/>
<defs>
<linearGradient id="paint0_linear_3597_4408" x1="62.4193" y1="-267.809" x2="148.675" y2="272.623" gradientUnits="userSpaceOnUse">
<stop offset="0.317743" stop-color="#33A36D"/>
<stop offset="0.954159" stop-color="#07160F"/>
</linearGradient>
<linearGradient id="paint1_linear_3597_4408" x1="80.9032" y1="0.64624" x2="130.634" y2="240.497" gradientUnits="userSpaceOnUse">
<stop stop-color="white" stop-opacity="0.6"/>
<stop offset="1" stop-color="white" stop-opacity="0"/>
</linearGradient>
</defs>
</svg>
