<svg width="15" height="16" viewBox="0 0 15 16" fill="none" xmlns="http://www.w3.org/2000/svg">
<path fill-rule="evenodd" clip-rule="evenodd" d="M11.7668 7.69635C13.3998 7.12091 14.4921 6.01489 14.4921 4.19807V4.15282C14.4921 3.10344 14.098 2.32468 13.5574 1.77167C12.6565 0.880193 11.3275 0.40625 9.21031 0.40625H0.673828V15.6749H9.13152C12.9831 15.6749 14.9877 13.8919 14.9877 11.443V11.3979C14.9877 9.29891 13.7263 8.26063 11.7668 7.69635ZM5.64062 4.26562H7.84794C8.94032 4.26562 9.48089 4.63796 9.48089 5.31506V5.36026C9.48089 6.02603 8.96287 6.39843 7.87044 6.39843H5.64062V4.26562ZM9.87506 10.6979C9.87506 11.3525 9.3007 11.8152 8.19707 11.8152H5.64062V9.54688H8.21956C9.32325 9.54688 9.87506 9.99828 9.87506 10.6641V10.6979Z" fill="#FBFBFB"/>
</svg>
