<svg width="44" height="19" viewBox="0 0 44 19" fill="none" xmlns="http://www.w3.org/2000/svg">
<path fill-rule="evenodd" clip-rule="evenodd" d="M28.1414 0.57908C27.5212 0.689241 26.8853 0.815119 26.3278 0.95675C24.3257 0.343118 21.9704 0.0126325 19.2539 0.240853C19.2539 0.240853 23.101 -0.483018 28.1414 0.57908ZM43.2871 10.303C41.6227 8.08444 39.809 6.33009 37.9483 4.95322C36.9198 5.16565 35.428 5.51975 34.1169 5.94456C34.902 6.80999 35.2868 7.42358 35.2868 7.42358C14.9444 7.34493 0.0820312 18.3042 0.0820312 18.3042C18.8621 12.8914 36.221 14.5672 36.221 14.5672L34.3603 16.3294L38.5921 14.2525L32.1462 11.7506C37.7677 9.05998 43.2871 10.303 43.2871 10.303ZM30.7946 1.28125C29.9388 1.4386 29.0359 1.65102 28.4863 1.79262C29.9153 2.45355 31.1165 3.24806 32.09 4.03483C32.8202 3.77518 33.8801 3.43691 35.1049 3.13008C33.6446 2.33553 32.1921 1.73753 30.7946 1.28125Z" fill="#FBFBFB"/>
</svg>
