<svg width="16" height="16" viewBox="0 0 16 16" fill="none" xmlns="http://www.w3.org/2000/svg">
<path fill-rule="evenodd" clip-rule="evenodd" d="M12.5232 7.69635C14.1562 7.12091 15.2373 6.01489 15.2373 4.19807V4.15282C15.2373 3.10344 14.8544 2.32468 14.3026 1.77167C13.4129 0.880193 12.084 0.40625 9.97799 0.40625H1.45282H1.44151H0L0.867146 4.26576H1.44151V15.6749H9.88796C13.7395 15.6749 15.7441 13.8919 15.7441 11.443V11.3979C15.7441 9.29891 14.4828 8.26063 12.5232 7.69635ZM6.39648 4.26562H8.6038C9.68493 4.26562 10.2367 4.63796 10.2367 5.31506V5.36026C10.2367 6.02603 9.70743 6.39843 8.6263 6.39843H6.39648V4.26562ZM10.6309 10.6979C10.6309 11.3525 10.0678 11.8152 8.95293 11.8152H6.39648V9.54688H8.97542C10.0791 9.54688 10.6309 9.99828 10.6309 10.6641V10.6979Z" fill="#FBFBFB"/>
</svg>
