<svg width="19" height="19" viewBox="0 0 19 19" fill="none" xmlns="http://www.w3.org/2000/svg">
<path fill-rule="evenodd" clip-rule="evenodd" d="M0.908203 9.39062C0.908203 5.79549 0.908203 3.99792 1.76489 2.70318C2.14745 2.12501 2.64259 1.62987 3.22076 1.24732C4.51549 0.390625 6.31306 0.390625 9.9082 0.390625C13.5033 0.390625 15.3009 0.390625 16.5957 1.24732C17.1738 1.62987 17.669 2.12501 18.0515 2.70318C18.9082 3.99792 18.9082 5.79549 18.9082 9.39062C18.9082 12.9858 18.9082 14.7833 18.0515 16.0781C17.669 16.6562 17.1738 17.1514 16.5957 17.5339C15.3009 18.3906 13.5033 18.3906 9.9082 18.3906C6.31306 18.3906 4.51549 18.3906 3.22076 17.5339C2.64259 17.1514 2.14745 16.6562 1.76489 16.0781C0.908203 14.7833 0.908203 12.9858 0.908203 9.39062ZM14.5669 9.39378C14.5669 11.9671 12.4808 14.0532 9.90746 14.0532C7.33414 14.0532 5.24805 11.9671 5.24805 9.39378C5.24805 6.82046 7.33414 4.73438 9.90746 4.73438C12.4808 4.73438 14.5669 6.82046 14.5669 9.39378ZM9.90746 12.4768C11.6102 12.4768 12.9905 11.0965 12.9905 9.39378C12.9905 7.69109 11.6102 6.31078 9.90746 6.31078C8.20476 6.31078 6.82445 7.69109 6.82445 9.39378C6.82445 11.0965 8.20476 12.4768 9.90746 12.4768ZM14.7509 5.5959C15.3555 5.5959 15.8457 5.10573 15.8457 4.50107C15.8457 3.89642 15.3555 3.40625 14.7509 3.40625C14.1462 3.40625 13.656 3.89642 13.656 4.50107C13.656 5.10573 14.1462 5.5959 14.7509 5.5959Z" fill="white"/>
</svg>
