<svg width="19" height="18" viewBox="0 0 19 18" fill="none" xmlns="http://www.w3.org/2000/svg">
<path d="M0.908203 2.31947C0.908203 1.74225 1.11091 1.26606 1.51631 0.890895C1.92171 0.515709 2.44875 0.328125 3.09739 0.328125C3.73446 0.328125 4.2499 0.512818 4.64372 0.882237C5.04912 1.26319 5.25183 1.75957 5.25183 2.37141C5.25183 2.92553 5.05493 3.38728 4.6611 3.7567C4.2557 4.13765 3.72287 4.32812 3.06264 4.32812H3.04527C2.4082 4.32812 1.89276 4.13765 1.49894 3.7567C1.10511 3.37574 0.908203 2.89666 0.908203 2.31947ZM1.13407 17.471V5.90388H4.99121V17.471H1.13407ZM7.12828 17.471H10.9854V11.0121C10.9854 10.6081 11.0318 10.2964 11.1244 10.077C11.2866 9.68454 11.5327 9.35264 11.8628 9.08137C12.193 8.81008 12.607 8.67444 13.1051 8.67444C14.4024 8.67444 15.0511 9.54601 15.0511 11.2892V17.471H18.9082V10.8389C18.9082 9.13042 18.5028 7.83462 17.692 6.9515C16.8812 6.06838 15.8098 5.62682 14.4777 5.62682C12.9835 5.62682 11.8194 6.26752 10.9854 7.5489V7.58353H10.968L10.9854 7.5489V5.90388H7.12828C7.15144 6.27328 7.16303 7.42191 7.16303 9.34977C7.16303 11.2776 7.15144 13.9847 7.12828 17.471Z" fill="white"/>
</svg>
