<svg width="19" height="15" viewBox="0 0 19 15" fill="none" xmlns="http://www.w3.org/2000/svg">
<path d="M12.9353 0.0969917V0.09375H13.7793L14.0876 0.155342C14.2932 0.195328 14.4799 0.24773 14.6476 0.312564C14.8153 0.377397 14.9776 0.453042 15.1345 0.539481C15.2914 0.625921 15.4337 0.713997 15.5614 0.803678C15.688 0.89229 15.8016 0.986298 15.9023 1.0857C16.0018 1.1862 16.1571 1.21213 16.3681 1.1635C16.5791 1.11488 16.8063 1.04734 17.0498 0.9609C17.2932 0.87446 17.534 0.77721 17.772 0.669149C18.0101 0.561087 18.1551 0.492477 18.207 0.463302C18.2579 0.433057 18.285 0.416848 18.2882 0.414676L18.2914 0.409814L18.3077 0.40171L18.3239 0.393606L18.3401 0.385501L18.3564 0.377397L18.3596 0.372535L18.3645 0.369293L18.3694 0.366051L18.3726 0.361189L18.3888 0.356326L18.405 0.353085L18.4018 0.377397L18.3969 0.40171L18.3888 0.426022L18.3807 0.450335L18.3726 0.466543L18.3645 0.482752L18.3564 0.507064C18.351 0.523273 18.3455 0.544879 18.3401 0.571898C18.3347 0.598917 18.2833 0.706963 18.1859 0.896066C18.0885 1.08517 17.9668 1.27696 17.8207 1.47146C17.6747 1.66597 17.5437 1.81291 17.428 1.91233C17.3111 2.01283 17.2337 2.08306 17.1959 2.12304C17.158 2.1641 17.112 2.20191 17.0579 2.2365L16.9767 2.28999L16.9605 2.29809L16.9443 2.3062L16.941 2.31106L16.9362 2.3143L16.9313 2.31754L16.928 2.32241L16.9118 2.33051L16.8956 2.33861L16.8923 2.34348L16.8875 2.34672L16.8826 2.34996L16.8793 2.35482L16.8761 2.35969L16.8712 2.36293L16.8664 2.36617L16.8631 2.37103H16.9443L17.3987 2.27378C17.7017 2.20895 17.9912 2.13061 18.2671 2.03876L18.7053 1.89288L18.754 1.87667L18.7784 1.86857L18.7946 1.86047L18.8108 1.85236L18.827 1.84426L18.8433 1.83615L18.8757 1.83129L18.9082 1.82805V1.86047L18.9001 1.86371L18.892 1.86857L18.8887 1.87343L18.8839 1.87667L18.879 1.87992L18.8757 1.88478L18.8725 1.88964L18.8676 1.89288L18.8628 1.89612L18.8595 1.90099L18.8563 1.90585L18.8514 1.90909L18.8433 1.9253L18.8352 1.94151L18.8303 1.94475C18.8281 1.94799 18.7594 2.03983 18.6242 2.22029C18.4889 2.40183 18.4159 2.49366 18.405 2.49584C18.3942 2.49908 18.3791 2.51529 18.3596 2.54446C18.3412 2.57471 18.2265 2.6952 18.0155 2.90591C17.8045 3.11662 17.5979 3.30408 17.3955 3.46834C17.1921 3.63367 17.0893 3.83681 17.0871 4.07778C17.0839 4.31766 17.0714 4.58889 17.0498 4.89144C17.0281 5.194 16.9876 5.52086 16.928 5.87205C16.8685 6.22324 16.7766 6.62034 16.6521 7.06337C16.5277 7.50639 16.3762 7.93862 16.1977 8.36004C16.0191 8.78146 15.8325 9.15965 15.6377 9.49463C15.4429 9.82961 15.2644 10.1133 15.1021 10.3456C14.9398 10.5779 14.7748 10.7967 14.607 11.002C14.4393 11.2073 14.2272 11.4386 13.9708 11.6957C13.7133 11.9518 13.5726 12.0923 13.5488 12.1171C13.5239 12.1409 13.4179 12.2295 13.2307 12.383C13.0446 12.5375 12.8444 12.692 12.6301 12.8465C12.417 13 12.2211 13.128 12.0426 13.2307C11.864 13.3333 11.6487 13.4505 11.3966 13.5824C11.1455 13.7153 10.8739 13.8385 10.5818 13.9519C10.2896 14.0654 9.98124 14.1708 9.65662 14.268C9.33201 14.3653 9.01822 14.4409 8.71524 14.4949C8.41227 14.5489 8.06871 14.5949 7.68458 14.6327L7.10838 14.6894V14.6975H6.05338V14.6894L5.91542 14.6813C5.82345 14.6759 5.7477 14.6705 5.68819 14.6651C5.62868 14.6597 5.40415 14.63 5.01461 14.576C4.62507 14.5219 4.31939 14.4679 4.09756 14.4139C3.87575 14.3599 3.54571 14.2572 3.10748 14.1059C2.66925 13.9546 2.29432 13.8017 1.98268 13.6472C1.67214 13.4938 1.47737 13.3965 1.39837 13.3555C1.32047 13.3155 1.23282 13.2658 1.13543 13.2064L0.989357 13.1172L0.986127 13.1123L0.981242 13.1091L0.976373 13.1059L0.973126 13.101L0.956896 13.0929L0.940665 13.0848L0.937435 13.0799L0.932549 13.0767L0.92768 13.0734L0.924434 13.0686L0.921204 13.0637L0.916319 13.0605H0.908203V13.0281L0.924434 13.0313L0.940665 13.0362L1.0137 13.0443C1.0624 13.0497 1.19495 13.0578 1.41136 13.0686C1.62778 13.0794 1.85771 13.0794 2.10117 13.0686C2.34463 13.0578 2.59352 13.0335 2.84779 12.9956C3.10208 12.9578 3.40235 12.893 3.7486 12.8011C4.09487 12.7093 4.41299 12.6002 4.70299 12.4737C4.9919 12.3462 5.19748 12.2511 5.31976 12.1885C5.44094 12.1269 5.62597 12.0123 5.87484 11.8448L6.24815 11.5936L6.2514 11.5888L6.25626 11.5855L6.26115 11.5823L6.26438 11.5774L6.26763 11.5725L6.2725 11.5693L6.27738 11.5661L6.28061 11.5612L6.29684 11.5563L6.31307 11.5531L6.31632 11.5369L6.32119 11.5207L6.32607 11.5174L6.3293 11.5126L6.19946 11.5045C6.1129 11.4991 6.02903 11.4937 5.94788 11.4883C5.86672 11.4829 5.73959 11.4586 5.56645 11.4153C5.39334 11.3721 5.20668 11.3073 5.00649 11.2208C4.80631 11.1344 4.61154 11.0317 4.42218 10.9129C4.23283 10.794 4.09594 10.6951 4.01154 10.6162C3.92823 10.5384 3.82002 10.4282 3.68692 10.2856C3.55492 10.1419 3.44021 9.99438 3.34283 9.84311C3.24544 9.69183 3.15239 9.5173 3.06367 9.31958L2.92894 9.02458L2.92083 9.00027L2.91271 8.97596L2.90784 8.95975L2.9046 8.94354L2.92894 8.94678L2.95329 8.95164L3.13183 8.97596C3.25086 8.99217 3.43752 8.99756 3.69179 8.99217C3.94608 8.98677 4.12191 8.97596 4.21929 8.95975C4.31668 8.94354 4.3762 8.93273 4.39783 8.92733L4.43029 8.91923L4.47087 8.91112L4.51145 8.90302L4.5147 8.89816L4.51956 8.89492L4.52445 8.89167L4.52768 8.88681L4.49522 8.87871L4.46276 8.8706L4.43029 8.8625L4.39783 8.85439L4.36537 8.84629C4.34374 8.84089 4.30587 8.83008 4.25176 8.81387C4.19766 8.79767 4.05158 8.73823 3.81352 8.63558C3.57548 8.53293 3.38612 8.43298 3.24544 8.33573C3.10442 8.23819 2.96996 8.13153 2.84292 8.01642C2.71632 7.89972 2.57729 7.74952 2.42579 7.56583C2.2743 7.38214 2.13905 7.16872 2.02002 6.92559C1.90099 6.68247 1.81173 6.45015 1.75221 6.22863C1.69293 6.00842 1.65382 5.78327 1.63536 5.55598L1.60613 5.21561L1.62236 5.21885L1.63859 5.22371L1.65482 5.23182L1.67105 5.23992L1.68728 5.24802L1.70351 5.25613L1.95509 5.36959C2.12282 5.44523 2.33111 5.51007 2.57998 5.56409C2.82886 5.61811 2.97763 5.64784 3.02633 5.65323L3.09937 5.66134H3.24544L3.24221 5.65648L3.23733 5.65323L3.23246 5.64999L3.22921 5.64513L3.22598 5.64027L3.2211 5.63703L3.21623 5.63378L3.21298 5.62892L3.19675 5.62082L3.18052 5.61271L3.17729 5.60785L3.17241 5.60461L3.16754 5.60137L3.16429 5.5965L3.14806 5.5884L3.13183 5.5803L3.1286 5.57543C3.12535 5.57326 3.07882 5.53869 2.989 5.4717C2.90026 5.40362 2.80721 5.31556 2.70983 5.2075C2.61244 5.09944 2.51506 4.98598 2.41767 4.86713C2.32011 4.748 2.23321 4.62054 2.15798 4.48623C2.08224 4.35116 2.00216 4.17934 1.91776 3.9708C1.83445 3.76333 1.77115 3.55425 1.72786 3.34354C1.68459 3.13283 1.66024 2.92482 1.65482 2.71951C1.64942 2.5142 1.65482 2.33861 1.67105 2.19274C1.68728 2.04686 1.71975 1.88207 1.76844 1.69838C1.81713 1.51469 1.88747 1.32019 1.97944 1.11488L2.1174 0.80692L2.12552 0.782607L2.13363 0.758295L2.13852 0.755053L2.14175 0.750191L2.14499 0.745328L2.14986 0.742086L2.15475 0.745328L2.15798 0.750191L2.16122 0.755053L2.16609 0.758295L2.17098 0.761536L2.17421 0.766399L2.17745 0.771261L2.18232 0.774503L2.19044 0.790712L2.19855 0.80692L2.20344 0.810162L2.20667 0.815024L2.42579 1.05815C2.57186 1.22023 2.745 1.40123 2.94517 1.60113C3.14536 1.80103 3.25627 1.90476 3.27791 1.91233C3.29956 1.92097 3.3266 1.94582 3.35906 1.98689C3.39152 2.02688 3.49973 2.12251 3.68368 2.27378C3.86764 2.42505 4.10839 2.60066 4.40595 2.80055C4.70353 3.00045 5.03355 3.19766 5.39603 3.39216C5.75853 3.58666 6.14807 3.76225 6.56465 3.91893C6.98125 4.07562 7.2734 4.17827 7.44112 4.22689C7.60885 4.27552 7.89558 4.33765 8.30135 4.41329C8.70712 4.48894 9.01281 4.53756 9.21839 4.55917C9.42399 4.58077 9.56466 4.5932 9.64039 4.59645L9.75401 4.59969L9.75078 4.57538L9.74589 4.55106L9.71343 4.34846C9.6918 4.21339 9.68097 4.02429 9.68097 3.78116C9.68097 3.53804 9.69991 3.31383 9.73778 3.10851C9.77566 2.9032 9.83247 2.6952 9.9082 2.48449C9.98395 2.27378 10.0581 2.10466 10.1306 1.97717C10.2042 1.85074 10.3005 1.70649 10.4195 1.5444C10.5385 1.38232 10.6927 1.21484 10.8821 1.04194C11.0714 0.869047 11.2878 0.715067 11.5313 0.580002C11.7747 0.444938 11.9993 0.342274 12.2049 0.272042C12.4105 0.201811 12.5836 0.155877 12.7243 0.134271C12.8649 0.112665 12.9353 0.100233 12.9353 0.0969917Z" fill="white"/>
</svg>
