<svg width="20" height="15" viewBox="0 0 20 15" fill="none" xmlns="http://www.w3.org/2000/svg">
<path d="M10.3465 14.3767L6.28428 14.3007C4.96903 14.2743 3.65051 14.3271 2.36105 14.053C0.399484 13.6435 0.26052 11.6356 0.115109 9.95135C-0.0852533 7.58351 -0.0076872 5.17269 0.370422 2.82461C0.583877 1.5071 1.42391 0.720927 2.72299 0.635376C7.10834 0.324901 11.5229 0.361696 15.8985 0.506544C16.3606 0.519822 16.8259 0.592398 17.2816 0.675009C19.5309 1.07793 19.5857 3.35332 19.7315 5.26878C19.877 7.204 19.8156 9.14916 19.5376 11.0712C19.3147 12.6626 18.888 13.9972 17.0877 14.126C14.8319 14.2944 12.6279 14.4301 10.3658 14.3869C10.3659 14.3767 10.3529 14.3767 10.3465 14.3767ZM7.95829 10.3477C9.6582 9.35026 11.3257 8.36948 13.0158 7.37875C11.3128 6.38134 9.64848 5.40055 7.95829 4.40983V10.3477Z" fill="white"/>
</svg>
