<svg width="1440" height="798" viewBox="0 0 1440 798" fill="none" xmlns="http://www.w3.org/2000/svg">
<ellipse cx="720.5" cy="399" rx="942.5" ry="399" fill="black"/>
<path d="M1662.5 399C1662.5 453.919 1636.21 506.282 1588.58 553.955C1540.95 601.631 1472 644.588 1386.75 680.675C1216.27 752.848 980.714 797.5 720.5 797.5C460.286 797.5 224.73 752.848 54.2468 680.675C-30.996 644.588 -99.9471 601.631 -147.58 553.955C-195.211 506.282 -221.5 453.919 -221.5 399C-221.5 344.081 -195.211 291.718 -147.58 244.045C-99.9471 196.369 -30.996 153.412 54.2468 117.325C224.73 45.1519 460.286 0.5 720.5 0.5C980.714 0.5 1216.27 45.1519 1386.75 117.325C1472 153.412 1540.95 196.369 1588.58 244.045C1636.21 291.718 1662.5 344.081 1662.5 399Z" stroke="url(#paint0_linear_3597_4093)" stroke-opacity="0.5"/>
<defs>
<linearGradient id="paint0_linear_3597_4093" x1="162" y1="63" x2="1258.5" y2="59.5" gradientUnits="userSpaceOnUse">
<stop stop-color="white" stop-opacity="0"/>
<stop offset="0.510236" stop-color="white" stop-opacity="0.480656"/>
<stop offset="1" stop-color="white" stop-opacity="0"/>
</linearGradient>
</defs>
</svg>
